<?xml version="1.0" encoding="utf-8"?>
<!-- Generator: Adobe Illustrator 22.0.1, SVG Export Plug-In . SVG Version: 6.00 Build 0)  -->
<svg version="1.1" id="Layer_1" xmlns="http://www.w3.org/2000/svg" xmlns:xlink="http://www.w3.org/1999/xlink" x="0px" y="0px"
	 viewBox="0 0 108 108" style="enable-background:new 0 0 108 108;" xml:space="preserve">
<style type="text/css">
	.st0{fill:#333333;}
	.st1{fill:#FFFFFF;}
	.st2{fill:#FFE57F;}
	.st3{fill:#FFD740;}
	.st4{fill:#37474F;}
	.st5{fill:#FFCA28;}
	.st6{fill:#5DBCD2;}
</style>
<g id="Layer_2_1_">
	<path class="st0" d="M54.3,98c-24.1,0-43.7-19.6-43.7-43.7s19.6-43.7,43.7-43.7S98,30.2,98,54.3C98.4,78.4,78.4,98,54.3,98z"/>
</g>
<g id="Capa_1">
	<path class="st0" d="M54,108C24.1,108,0,83.9,0,54S24.1,0,54,0s54,24.1,54,54S83.9,108,54,108z M54,6.5C27.9,6.5,6.2,27.9,6.2,54.3
		c0,26.1,21.3,47.8,47.8,47.8c26.1,0,47.8-21.3,47.8-47.8S80.5,6.5,54,6.5z"/>
	<g id="Bitcoin_BTC_2_">
		<g>
			<g>
				<g>
					<g>
						<g>
							<g>
								<g>
									<circle class="st1" cx="24.7" cy="54.3" r="12.7"/>
								</g>
							</g>
						</g>
						<g>
							<g>
								<g>
									<g>
										<path class="st2" d="M36.8,51.1c-1.5-5.5-6.4-9.2-11.9-9.2c-0.8,0.1-1.6,0.2-2.4,0.4c-6.8,1.8-10.8,8.8-9,15.6
											c1,3.6,3.4,6.4,6.5,8c2.5,1,5.2,1.3,8,0.5C34.6,64.6,38.5,57.7,36.8,51.1z"/>
									</g>
								</g>
							</g>
						</g>
						<g>
							<g>
								<g>
									<path class="st3" d="M26.7,41.7c4.3,1.1,8,4.4,9.2,9.1c1.8,6.8-2.2,13.8-9,15.6c-1.8,0.5-3.6,0.5-5.3,0.3
										c2,0.5,4.2,0.5,6.4-0.1c6.8-1.8,10.8-8.8,9-15.6C35.7,46,31.5,42.5,26.7,41.7z"/>
								</g>
							</g>
						</g>
						<g>
							<g>
								<g>
									<path class="st4" d="M28.1,66.8c-6.9,1.9-14-2.3-15.9-9.2s2.3-14,9.2-15.9s14,2.3,15.9,9.2S35,65,28.1,66.8z M21.5,42.2
										c-6.7,1.8-10.6,8.6-8.8,15.3s8.6,10.6,15.3,8.8c6.7-1.8,10.6-8.6,8.8-15.3C35,44.4,28.1,40.5,21.5,42.2z"/>
								</g>
							</g>
						</g>
					</g>
					<g>
						<g>
							<g>
								<g>
									<circle class="st3" cx="24.7" cy="54.3" r="10.8"/>
								</g>
							</g>
						</g>
						<g>
							<g>
								<g>
									<path class="st5" d="M15.3,57.3c-1.5-5.8,1.9-11.7,7.6-13.2c1.5-0.4,3-0.5,4.4-0.2c-1.7-0.5-3.6-0.5-5.5,0
										c-5.8,1.5-9.2,7.5-7.6,13.2c1.1,4.3,4.7,7.3,8.8,7.9C19.4,64,16.4,61.2,15.3,57.3z"/>
								</g>
							</g>
						</g>
						<g>
							<g>
								<g>
									<path class="st2" d="M26.3,43.6c3.7,0.9,6.7,3.8,7.8,7.7c1.5,5.8-1.9,11.7-7.6,13.2c-1.5,0.4-3,0.5-4.4,0.2
										c1.7,0.5,3.6,0.5,5.5,0c5.8-1.5,9.2-7.5,7.6-13.2C34,47.2,30.4,44.3,26.3,43.6z"/>
								</g>
							</g>
						</g>
						<g>
							<g>
								<g>
									<path class="st4" d="M27.6,65C21.7,66.5,15.6,63,14,57.2s1.9-11.9,7.8-13.5s11.9,1.9,13.5,7.8C36.9,57.3,33.4,63.4,27.6,65
										z M22,44.1c-5.6,1.5-9,7.3-7.5,12.9s7.3,9,12.9,7.5c5.6-1.5,9-7.3,7.5-12.9S27.6,42.6,22,44.1z"/>
								</g>
							</g>
						</g>
					</g>
				</g>
			</g>
		</g>
		<g>
			<g>
				<g>
					<g>
						<path class="st1" d="M29.9,51c-0.2-1.7-1.7-2.3-3.6-2.4l0-2.4l-1.5,0l0,2.3c-0.4,0-0.8,0-1.2,0l0-2.4l-1.5,0l0,2.4
							c-0.3,0-2.9,0.1-2.9,0.1l0,1.6c0,0,1.1,0,1.1,0c0.6,0,0.8,0.3,0.8,0.6l0.1,6.6c0,0.2-0.1,0.5-0.5,0.5c0,0-1.1,0-1.1,0
							l-0.3,1.7c0,0,2.6,0,2.9,0l0,2.4l1.5,0l0-2.4c0.4,0,0.8,0,1.2,0l0,2.4l1.5,0l0-2.4c2.5-0.2,4.2-0.8,4.3-3.2
							c0.1-1.9-0.8-2.7-2.1-3C29.5,53,30.1,52.3,29.9,51L29.9,51z M28,56.2c0,1.8-3.1,1.7-4.1,1.7l-0.1-3.2
							C24.8,54.7,27.9,54.3,28,56.2L28,56.2z M27.2,51.7c0,1.6-2.6,1.5-3.4,1.5l0-2.9C24.6,50.3,27.2,50,27.2,51.7z"/>
					</g>
				</g>
			</g>
			<g>
				<g>
					<g>
						<path class="st2" d="M26.9,59.4c0.7-0.1,1.3-0.2,1.8-0.3c1.5-0.4,2.2-1.2,2.3-2.7c0.1-1.6-0.5-2.4-2-2.7l-0.6-0.2l0.6-0.3
							c0.8-0.5,1.2-1.2,1.1-2.2c-0.2-1.4-1.2-2.1-3.4-2.2l-0.2,0l0-2.4l-1,0l0,2.3h-0.2c-0.4,0-0.8,0-1.2,0h-0.2l0-2.4l-1,0l0,2.4
							h-0.2c-0.3,0-2.1,0-2.7,0l0,1.1c0.5,0,0.7,0,0.8,0c0.6,0,1,0.3,1.1,0.8l0.1,6.6c0,0.5-0.3,0.7-0.8,0.7c-0.1,0-0.2,0-0.9,0
							l-0.2,1.3c0.7,0,2.4,0,2.7,0h0.2l0,2.4l1,0l0-2.4h0.2c0.4,0,0.8,0,1.2,0h0.2l0,2.4l1,0l0-2.4L26.9,59.4z M24,50.1h0.2
							c0.1,0,0.2,0,0.3,0c0.8,0,2.2-0.1,2.9,0.6c0.3,0.3,0.4,0.6,0.5,1.1c0,0.5-0.2,1.3-1.4,1.6c-0.7,0.2-1.4,0.2-2,0.2H24L24,50.1z
							 M24.6,58.2h-0.5L24,54.5h0.2c0.1,0,0.2,0,0.3,0c1,0,2.7-0.1,3.5,0.7c0.3,0.3,0.5,0.7,0.5,1.1c0,0.6-0.3,1.3-1.6,1.7
							C26.2,58.2,25.2,58.2,24.6,58.2z"/>
					</g>
				</g>
			</g>
			<g>
				<g>
					<g>
						<path class="st4" d="M26.8,62.3l-1.9,0l0-2.4c-0.2,0-0.5,0-0.7,0l0,2.4l-1.9,0l0-2.4c-0.7,0-2.7,0-2.7,0h-0.3l0.3-2.2h0.2
							c0.3,0,0.7,0,0.9,0l0,0h0.2c0,0,0.1,0,0.1,0c0,0,0.2,0,0.2-0.3L21,50.9c-0.1-0.3-0.3-0.4-0.6-0.4h-0.2c-0.2,0-0.6,0-0.9,0
							h-0.2l0-2.1h0.2c0,0,2,0,2.7,0l0-2.4l1.9,0l0,2.4c0.2,0,0.5,0,0.7,0l0-2.3l1.9,0l0,2.4c1.5,0.1,3.4,0.6,3.6,2.6
							c0.1,1.1-0.2,1.9-0.9,2.4c1.3,0.5,1.9,1.5,1.8,3.1c-0.1,1.6-1,2.6-2.7,3.1c-0.5,0.1-1,0.2-1.7,0.3L26.8,62.3z M25.3,61.8l1,0
							l0-2.4l0.2,0c0.7-0.1,1.3-0.2,1.8-0.3c1.5-0.4,2.2-1.2,2.3-2.7c0.1-1.6-0.5-2.4-2-2.7L28,53.5l0.6-0.3
							c0.8-0.5,1.2-1.2,1.1-2.2c-0.2-1.4-1.2-2.1-3.4-2.2l-0.2,0l0-2.4l-1,0l0,2.3h-0.2c-0.4,0-0.8,0-1.2,0h-0.2l0-2.4l-1,0l0,2.4
							h-0.2c-0.3,0-2.1,0-2.7,0l0,1.1c0.5,0,0.7,0,0.8,0c0.6,0,1,0.3,1.1,0.8l0.1,6.6c0,0.5-0.3,0.7-0.8,0.7c-0.1,0-0.2,0-0.9,0
							l-0.2,1.3c0.7,0,2.4,0,2.7,0h0.2l0,2.4l1,0l0-2.4h0.2c0.4,0,0.8,0,1.2,0h0.2L25.3,61.8z M26.6,57.9c-0.8,0.2-1.8,0.2-2.4,0.2
							h-0.5l-0.1-3.7h0.2c0.1,0,0.2,0,0.3,0c1,0,2.7-0.1,3.5,0.7c0.3,0.3,0.5,0.7,0.5,1.1C28.2,56.8,28,57.6,26.6,57.9z M24.1,57.7
							L24.1,57.7c0.6,0,1.6,0,2.4-0.2c0.8-0.2,1.3-0.6,1.2-1.2c0-0.3-0.1-0.6-0.3-0.8c-0.7-0.6-2.3-0.6-3.2-0.5c0,0-0.1,0-0.1,0
							L24.1,57.7z M26,53.3c-0.7,0.2-1.4,0.2-2,0.2h-0.5l-0.1-3.4h0.2c0.1,0,0.2,0,0.3,0c0.8,0,2.2-0.1,2.9,0.6
							c0.3,0.3,0.4,0.6,0.5,1.1C27.5,52.3,27.2,53,26,53.3z M24,53L24,53c0.5,0,1.2,0,1.9-0.2c1-0.3,1.1-0.8,1.1-1.1
							c0-0.3-0.1-0.5-0.3-0.7c-0.6-0.5-1.9-0.5-2.6-0.5c0,0,0,0-0.1,0L24,53z"/>
					</g>
				</g>
			</g>
		</g>
	</g>
	<g id="Ripple_XRP_2_">
		<g>
			<g>
				<g>
					<g>
						<g>
							<g>
								<g>
									<circle class="st1" cx="54.3" cy="83.9" r="12.7"/>
								</g>
							</g>
						</g>
						<g>
							<g>
								<g>
									<g>
										<path class="st2" d="M66.8,83.9c0-5.7-3.8-10.5-9.1-12c-0.8-0.2-1.6-0.2-2.5-0.2c-7,0-12.7,5.7-12.7,12.7
											c0,3.7,1.6,7.1,4.2,9.4c2.1,1.6,4.7,2.6,7.6,2.6C61.2,96.4,66.8,90.8,66.8,83.9z"/>
									</g>
								</g>
							</g>
						</g>
						<g>
							<g>
								<g>
									<path class="st3" d="M59.5,72.3c3.9,2.2,6.5,6.3,6.5,11.1c0,7-5.7,12.7-12.7,12.7c-1.9,0-3.6-0.4-5.2-1.1
										c1.8,1,3.9,1.6,6.2,1.6c7,0,12.7-5.7,12.7-12.7C67,78.7,63.9,74.3,59.5,72.3z"/>
								</g>
							</g>
						</g>
						<g>
							<g>
								<g>
									<path class="st4" d="M54.3,96.9c-7.1,0-13-5.8-13-13c0-7.1,5.8-13,13-13s13,5.8,13,13C67.3,91,61.5,96.9,54.3,96.9z
										 M54.3,71.4c-6.9,0-12.5,5.6-12.5,12.5c0,6.9,5.6,12.5,12.5,12.5s12.5-5.6,12.5-12.5C66.8,77,61.2,71.4,54.3,71.4z"/>
								</g>
							</g>
						</g>
					</g>
					<g>
						<g>
							<g>
								<g>
									<circle class="st3" cx="54.3" cy="83.9" r="10.8"/>
								</g>
							</g>
						</g>
						<g>
							<g>
								<g>
									<path class="st5" d="M44.5,84.4c0-6,4.8-10.8,10.8-10.8c1.5,0,3,0.3,4.3,0.9c-1.6-0.9-3.4-1.4-5.3-1.4
										c-6,0-10.8,4.8-10.8,10.8c0,4.4,2.7,8.2,6.5,9.9C46.7,91.9,44.5,88.4,44.5,84.4z"/>
								</g>
							</g>
						</g>
						<g>
							<g>
								<g>
									<path class="st2" d="M58.6,74c3.3,1.9,5.5,5.4,5.5,9.4c0,6-4.8,10.8-10.8,10.8c-1.5,0-3-0.3-4.3-0.9
										c1.6,0.9,3.4,1.4,5.3,1.4c6,0,10.8-4.8,10.8-10.8C65.1,79.5,62.4,75.7,58.6,74z"/>
								</g>
							</g>
						</g>
						<g>
							<g>
								<g>
									<path class="st4" d="M54.3,94.9c-6.1,0-11-4.9-11-11s4.9-11,11-11s11,4.9,11,11S60.4,94.9,54.3,94.9z M54.3,73.3
										c-5.8,0-10.6,4.7-10.6,10.6s4.7,10.6,10.6,10.6s10.6-4.7,10.6-10.6S60.1,73.3,54.3,73.3z"/>
								</g>
							</g>
						</g>
					</g>
				</g>
			</g>
		</g>
		<g>
			<g>
				<g>
					<g>
						<path class="st1" d="M55.5,77c-1,0.6-1.5,1.6-1.5,2.7c0,0.6,0.2,1.1,0.5,1.6c0.2,0.5,0.3,1.2-0.5,1.6
							c-0.6,0.3-1.3,0.1-1.6-0.5c-0.3-0.5-0.7-0.9-1.2-1.2c-1-0.6-2.1-0.6-3,0c-1,0.6-1.5,1.6-1.5,2.7s0.6,2.1,1.5,2.7
							c1,0.6,2.1,0.6,3,0c0.5-0.3,0.9-0.7,1.2-1.2c0.2-0.4,0.8-0.9,1.6-0.5c0.6,0.3,0.7,1.1,0.5,1.6C54.2,87,54,87.6,54,88.1
							c0,1.1,0.6,2.1,1.5,2.7c1,0.6,2.1,0.6,3,0c1-0.6,1.5-1.6,1.5-2.7s-0.6-2.1-1.5-2.7c-0.5-0.3-1.1-0.4-1.7-0.4
							c-0.5,0-1.2-0.3-1.2-1.2c0-0.7,0.5-1.2,1.2-1.2c0.6,0,1.2-0.1,1.7-0.4c1-0.6,1.5-1.6,1.5-2.7c0-1.1-0.6-2.1-1.5-2.7
							c-0.5-0.3-1-0.4-1.5-0.4C56.5,76.6,56,76.7,55.5,77L55.5,77z"/>
					</g>
				</g>
			</g>
			<g>
				<g>
					<g>
						<path class="st2" d="M59.8,88.6c0-1-0.5-1.9-1.4-2.4c-0.4-0.2-1-0.4-1.6-0.4c-0.7,0-1.4-0.5-1.4-1.4c0-0.8,0.6-1.4,1.4-1.4
							c0.6,0,1.1-0.1,1.6-0.4c0.9-0.5,1.4-1.4,1.4-2.4s-0.5-1.9-1.4-2.4c-0.4-0.2-0.9-0.4-1.4-0.4l0,0c-0.5,0-1,0.1-1.4,0.3
							c-0.9,0.5-1.4,1.4-1.4,2.4c0,0.5,0.2,1,0.5,1.5c0.2,0.3,0.2,0.7,0.2,1c0,0.3-0.2,0.7-0.7,1c-0.2,0.1-0.4,0.2-0.7,0.2
							c-0.5,0-1-0.3-1.3-0.7c-0.4-0.5-0.8-0.9-1.2-1.2c-0.8-0.5-1.9-0.5-2.8,0c-0.9,0.5-1.4,1.4-1.4,2.4c0,1,0.5,1.9,1.4,2.4
							c0.9,0.5,1.9,0.5,2.8,0c0.4-0.2,0.8-0.6,1.1-1.1c0.2-0.3,0.6-0.8,1.2-0.8c0.2,0,0.5,0.1,0.7,0.2c0.6,0.4,0.9,1.3,0.5,1.9
							c-0.3,0.5-0.4,1-0.4,1.5c0,1,0.5,1.9,1.4,2.4c0.9,0.5,1.9,0.5,2.8,0C59.3,90.5,59.8,89.6,59.8,88.6z"/>
					</g>
				</g>
			</g>
			<g>
				<g>
					<g>
						<path class="st4" d="M57,91.4c-0.6,0-1.1-0.2-1.6-0.5c-1-0.6-1.6-1.7-1.6-2.9c0-0.6,0.2-1.2,0.5-1.7c0.2-0.5,0.1-1.1-0.4-1.3
							c-0.2-0.1-0.3-0.2-0.5-0.2c-0.4,0-0.7,0.3-0.8,0.5c-0.3,0.6-0.8,1.1-1.3,1.3c-1,0.6-2.3,0.6-3.3,0c-1-0.6-1.6-1.7-1.6-2.9
							c0-1.2,0.6-2.3,1.6-2.9c1-0.6,2.3-0.6,3.3,0c0.6,0.4,1,0.9,1.3,1.3c0.3,0.5,0.9,0.6,1.3,0.4c0.3-0.2,0.5-0.3,0.5-0.6
							c0-0.3-0.1-0.6-0.1-0.7c-0.4-0.6-0.5-1.2-0.5-1.7c0-1.2,0.6-2.3,1.6-2.9c0.4-0.3,1-0.4,1.6-0.4c0.6,0,1.2,0.2,1.7,0.4
							c1,0.6,1.6,1.7,1.6,2.9s-0.6,2.3-1.6,2.9c-0.5,0.3-1.1,0.4-1.8,0.4c-0.5,0-1,0.4-1,1c0,0.8,0.6,1,1,1c0.7,0,1.3,0.1,1.8,0.4
							c1,0.6,1.6,1.7,1.6,2.9s-0.6,2.3-1.6,2.9C58.2,91.3,57.6,91.4,57,91.4z M53.4,84.4c0.2,0,0.5,0.1,0.7,0.2
							c0.6,0.4,0.9,1.3,0.5,1.9c-0.3,0.5-0.4,1-0.4,1.5c0,1,0.5,1.9,1.4,2.4c0.9,0.5,1.9,0.5,2.8,0c0.9-0.5,1.4-1.4,1.4-2.4
							c0-1-0.5-1.9-1.4-2.4c-0.4-0.2-1-0.4-1.6-0.4c-0.7,0-1.4-0.5-1.4-1.4c0-0.8,0.6-1.4,1.4-1.4c0.6,0,1.1-0.1,1.6-0.4
							c0.9-0.5,1.4-1.4,1.4-2.4c0-1-0.5-1.9-1.4-2.4c-0.4-0.2-0.9-0.4-1.4-0.4l0,0c-0.5,0-1,0.1-1.4,0.3c-0.9,0.5-1.4,1.4-1.4,2.4
							c0,0.5,0.2,1,0.5,1.5c0.2,0.3,0.2,0.7,0.2,1c0,0.3-0.2,0.7-0.7,1c-0.2,0.1-0.4,0.2-0.7,0.2c-0.5,0-1-0.3-1.3-0.7
							c-0.4-0.5-0.8-0.9-1.2-1.2c-0.8-0.5-1.9-0.5-2.8,0c-0.9,0.5-1.4,1.4-1.4,2.4s0.5,1.9,1.4,2.4c0.9,0.5,1.9,0.5,2.8,0
							c0.4-0.2,0.8-0.6,1.1-1.1C52.3,84.8,52.8,84.4,53.4,84.4z"/>
					</g>
				</g>
			</g>
		</g>
	</g>
	<g id="Litecoin_LTC_2_">
		<g>
			<g>
				<g>
					<g>
						<g>
							<g>
								<g>
									<g>
										<circle class="st1" cx="83.7" cy="54.3" r="12.7"/>
									</g>
								</g>
							</g>
							<g>
								<g>
									<g>
										<g>
											<path class="st2" d="M96.1,54.3c0-5.7-3.8-10.5-9.1-12c-0.8-0.2-1.6-0.2-2.5-0.2c-7,0-12.7,5.7-12.7,12.7
												c0,3.7,1.6,7.1,4.2,9.4c2.1,1.6,4.7,2.6,7.6,2.6C90.5,66.8,96.1,61.2,96.1,54.3z"/>
										</g>
									</g>
								</g>
							</g>
							<g>
								<g>
									<g>
										<path class="st3" d="M88.9,42.7c3.9,2.2,6.5,6.3,6.5,11.1c0,7-5.7,12.7-12.7,12.7c-1.9,0-3.6-0.4-5.2-1.1
											c1.8,1,3.9,1.6,6.2,1.6c7,0,12.7-5.7,12.7-12.7C96.4,49.1,93.3,44.7,88.9,42.7z"/>
									</g>
								</g>
							</g>
							<g>
								<g>
									<g>
										<path class="st4" d="M83.7,67.3c-7.1,0-13-5.8-13-13s5.8-13,13-13c7.1,0,13,5.8,13,13S90.8,67.3,83.7,67.3z M83.7,41.8
											c-6.9,0-12.5,5.6-12.5,12.5s5.6,12.5,12.5,12.5s12.5-5.6,12.5-12.5S90.5,41.8,83.7,41.8z"/>
									</g>
								</g>
							</g>
						</g>
						<g>
							<g>
								<g>
									<g>
										<circle class="st3" cx="83.7" cy="54.3" r="10.8"/>
									</g>
								</g>
							</g>
							<g>
								<g>
									<g>
										<path class="st5" d="M73.8,54.8c0-6,4.8-10.8,10.8-10.8c1.5,0,3,0.3,4.3,0.9c-1.6-0.9-3.4-1.4-5.3-1.4
											c-6,0-10.8,4.8-10.8,10.8c0,4.4,2.7,8.2,6.5,9.9C76.1,62.3,73.8,58.8,73.8,54.8z"/>
									</g>
								</g>
							</g>
							<g>
								<g>
									<g>
										<path class="st2" d="M88,44.4c3.3,1.9,5.5,5.4,5.5,9.4c0,6-4.8,10.8-10.8,10.8c-1.5,0-3-0.3-4.3-0.9
											c1.6,0.9,3.4,1.4,5.3,1.4c6,0,10.8-4.8,10.8-10.8C94.5,49.9,91.8,46.1,88,44.4z"/>
									</g>
								</g>
							</g>
							<g>
								<g>
									<g>
										<path class="st4" d="M83.7,65.3c-6.1,0-11-4.9-11-11s4.9-11,11-11s11,4.9,11,11S89.8,65.3,83.7,65.3z M83.7,43.7
											c-5.8,0-10.6,4.7-10.6,10.6s4.7,10.6,10.6,10.6s10.6-4.7,10.6-10.6S89.5,43.7,83.7,43.7z"/>
									</g>
								</g>
							</g>
						</g>
					</g>
				</g>
			</g>
		</g>
		<g>
			<g>
				<g>
					<g>
						<path class="st1" d="M82.7,58.1l0.9-3.5l2.1-0.8l0.5-2.1l-2.1,0.9l1.5-5.5h-4.2l-1.9,7.2l-1.6,0.5l-0.5,2l1.6-0.6l-1.1,4.3H89
							l0.7-2.4L82.7,58.1L82.7,58.1z"/>
					</g>
				</g>
			</g>
			<g>
				<g>
					<g>
						<polygon class="st2" points="83.2,58.1 82.9,58.1 83.9,54.3 85.9,53.5 86.3,51.6 84.3,52.3 85.8,47.1 82.1,47.1 80.1,54.3 
							78.5,54.9 78.1,56.3 79.7,55.7 78.6,60 89.3,60 89.9,58.1 						"/>
					</g>
				</g>
			</g>
			<g>
				<g>
					<g>
						<path class="st4" d="M89.2,60.5H77.5l1.1-4l-1.6,0.7l0.7-2.6l1.6-0.6l2-7.3h4.7l-1.4,5.4l2.1-0.8l-0.6,2.6l-2.1,0.8l-0.8,3h7
							L89.2,60.5z M78.1,60h10.7l0.6-1.9h-7l1-3.8l2.1-0.8l0.4-1.5l-2.1,0.8l1.5-5.7h-3.7l-1.9,7.2L78,54.9l-0.4,1.4l1.6-0.7
							L78.1,60z"/>
					</g>
				</g>
			</g>
		</g>
	</g>
	<g id="Ethereum_ETH_2_">
		<g>
			<g>
				<g>
					<g>
						<g>
							<g>
								<g>
									<circle class="st1" cx="54.3" cy="24.9" r="12.7"/>
								</g>
							</g>
						</g>
						<g>
							<g>
								<g>
									<g>
										<path class="st2" d="M66.8,24.9c0-5.7-3.8-10.5-9.1-12c-0.8-0.2-1.6-0.2-2.5-0.2c-7,0-12.7,5.7-12.7,12.7
											c0,3.7,1.6,7.1,4.2,9.4c2.1,1.6,4.7,2.6,7.6,2.6C61.2,37.4,66.8,31.8,66.8,24.9z"/>
									</g>
								</g>
							</g>
						</g>
						<g>
							<g>
								<g>
									<path class="st3" d="M59.5,13.3c3.9,2.2,6.5,6.3,6.5,11.1c0,7-5.7,12.7-12.7,12.7c-1.9,0-3.6-0.4-5.2-1.1
										c1.8,1,3.9,1.6,6.2,1.6c7,0,12.7-5.7,12.7-12.7C67,19.7,63.9,15.3,59.5,13.3z"/>
								</g>
							</g>
						</g>
						<g>
							<g>
								<g>
									<path class="st4" d="M54.3,37.9c-7.1,0-13-5.8-13-13s5.8-13,13-13s13,5.8,13,13S61.5,37.9,54.3,37.9z M54.3,12.4
										c-6.9,0-12.5,5.6-12.5,12.5s5.6,12.5,12.5,12.5s12.5-5.6,12.5-12.5S61.2,12.4,54.3,12.4z"/>
								</g>
							</g>
						</g>
					</g>
					<g>
						<g>
							<g>
								<g>
									<circle class="st3" cx="54.3" cy="24.9" r="10.8"/>
								</g>
							</g>
						</g>
						<g>
							<g>
								<g>
									<path class="st5" d="M44.5,25.4c0-6,4.8-10.8,10.8-10.8c1.5,0,3,0.3,4.3,0.9c-1.6-0.9-3.4-1.4-5.3-1.4
										c-6,0-10.8,4.8-10.8,10.8c0,4.4,2.7,8.2,6.5,9.9C46.7,33,44.5,29.4,44.5,25.4z"/>
								</g>
							</g>
						</g>
						<g>
							<g>
								<g>
									<path class="st2" d="M58.6,15c3.3,1.9,5.5,5.4,5.5,9.4c0,6-4.8,10.8-10.8,10.8c-1.5,0-3-0.3-4.3-0.9
										c1.6,0.9,3.4,1.4,5.3,1.4c6,0,10.8-4.8,10.8-10.8C65.1,20.5,62.4,16.7,58.6,15z"/>
								</g>
							</g>
						</g>
						<g>
							<g>
								<g>
									<path class="st4" d="M54.3,36c-6.1,0-11-4.9-11-11s4.9-11,11-11s11,4.9,11,11S60.4,36,54.3,36z M54.3,14.4
										c-5.8,0-10.6,4.7-10.6,10.6s4.7,10.6,10.6,10.6s10.6-4.7,10.6-10.6S60.1,14.4,54.3,14.4z"/>
								</g>
							</g>
						</g>
					</g>
				</g>
			</g>
		</g>
		<g>
			<g>
				<g>
					<g>
						<g>
							<polygon class="st1" points="49.2,25 54.3,16.5 59.4,25 54.3,28 							"/>
						</g>
					</g>
				</g>
				<g>
					<g>
						<g>
							<polygon class="st2" points="59.1,24.9 54.3,17 50,25.4 54.3,27.7 							"/>
						</g>
					</g>
				</g>
				<g>
					<g>
						<g>
							<path class="st4" d="M54.3,17l4.8,7.9l-4.8,2.8l-4.8-2.8L54.3,17L54.3,17z M54.3,16.1l-5.4,9l5.4,3.2l5.4-3.2L54.3,16.1
								L54.3,16.1z"/>
						</g>
					</g>
				</g>
			</g>
			<g>
				<g>
					<g>
						<g>
							<path class="st4" d="M54.3,23.3l4.4,1.8l-4.4,2.6l-4.4-2.6L54.3,23.3L54.3,23.3z M54.3,22.8l-5.4,2.3l5.4,3.2l5.4-3.2
								L54.3,22.8L54.3,22.8z"/>
						</g>
					</g>
				</g>
			</g>
			<g>
				<g>
					<g>
						<g>
							<polygon class="st1" points="49.7,26.9 54.3,29.6 58.9,26.9 54.3,33.4 							"/>
						</g>
					</g>
				</g>
				<g>
					<g>
						<g>
							<polygon class="st2" points="58,27.7 54.5,29.7 54.3,29.9 54,29.7 51,27.7 54.3,32.9 							"/>
						</g>
					</g>
				</g>
				<g>
					<g>
						<g>
							<path class="st4" d="M58,27.7l-3.7,5.2l-3.7-5.2l3.5,2.1l0.2,0.2l0.2-0.2L58,27.7L58,27.7z M59.7,26.1l-5.4,3.2l-5.4-3.2
								l5.4,7.6l0,0L59.7,26.1L59.7,26.1z"/>
						</g>
					</g>
				</g>
			</g>
		</g>
		<g>
			<g>
				<g>
					<rect x="54.1" y="17" class="st4" width="0.5" height="10.9"/>
				</g>
			</g>
		</g>
		<g>
			<g>
				<g>
					<rect x="54.1" y="29.4" class="st4" width="0.5" height="3.8"/>
				</g>
			</g>
		</g>
	</g>
	<g>
		<path class="st6" d="M60.5,53.9c-0.2,0-0.4,0.2-0.4,0.4v2.5c0,3.2-2.6,5.8-5.8,5.8c-3.2,0-5.8-2.6-5.8-5.8v-2.5
			c0-0.2-0.2-0.4-0.4-0.4s-0.4,0.2-0.4,0.4v2.5c0,3.5,2.7,6.4,6.2,6.6v2.1h-2.1c-0.2,0-0.4,0.2-0.4,0.4c0,0.2,0.2,0.4,0.4,0.4h4.9
			c0.2,0,0.4-0.2,0.4-0.4c0-0.2-0.2-0.4-0.4-0.4h-2.1v-2.1c3.4-0.2,6.2-3.1,6.2-6.6v-2.5C60.9,54.1,60.7,53.9,60.5,53.9z"/>
		<path class="st6" d="M54.3,61.3c2.5,0,4.5-2,4.5-4.5v-9.9c0-2.5-2-4.5-4.5-4.5s-4.5,2-4.5,4.5v9.9C49.8,59.3,51.8,61.3,54.3,61.3z
			"/>
	</g>
</g>
</svg>
